<svg width="14" height="14" viewBox="0 0 14 14" fill="none" xmlns="http://www.w3.org/2000/svg">
<g clip-path="url(#clip0_3000_567)">
<g clip-path="url(#clip1_3000_567)">
<path d="M11.2773 11.9885C9.43097 13.8369 6.65268 14.3905 4.23888 13.3909C1.82508 12.3913 0.251586 10.0356 0.25267 7.42301C0.25267 5.11537 1.48378 2.98303 3.48225 1.82921C5.48073 0.675391 7.94295 0.675391 9.94142 1.82921C11.9399 2.98303 13.171 5.11537 13.171 7.42301C13.1749 9.13667 12.493 10.7806 11.2773 11.9885ZM3.13802 11.1539C5.16898 13.1416 8.42417 13.1154 10.4229 11.0952C12.4215 9.0749 12.4127 5.81961 10.4032 3.81014C8.39376 1.80067 5.13847 1.79192 3.11818 3.79051C1.09799 5.78921 1.07174 9.0444 3.05949 11.0754L3.13802 11.1539ZM7.35511 10.4321L6.06811 10.4316L6.06811 8.06674L3.70322 8.06674V6.77929H6.06811V4.4144H7.35556L7.35556 6.77929L9.72045 6.77929L9.72091 8.06628L7.35556 8.06674L7.35556 10.4316L7.35511 10.4321Z" fill="currentColor"/>
</g>
</g>
<defs>
<clipPath id="clip0_3000_567">
<rect width="14" height="14" fill="currentColor"/>
</clipPath>
<clipPath id="clip1_3000_567">
<rect width="14" height="14" fill="currentColor"/>
</clipPath>
</defs>
</svg>
