<svg width="14" height="14" viewBox="0 0 14 14" fill="none" xmlns="http://www.w3.org/2000/svg">
<g clip-path="url(#clip0_3070_130583)">
<path d="M5.66667 10.4C5.84348 10.4 6.01305 10.3315 6.13807 10.2096C6.2631 10.0877 6.33333 9.92239 6.33333 9.75V5.85C6.33333 5.67761 6.2631 5.51228 6.13807 5.39038C6.01305 5.26848 5.84348 5.2 5.66667 5.2C5.48986 5.2 5.32029 5.26848 5.19526 5.39038C5.07024 5.51228 5 5.67761 5 5.85V9.75C5 9.92239 5.07024 10.0877 5.19526 10.2096C5.32029 10.3315 5.48986 10.4 5.66667 10.4ZM12.3333 2.6H9.66667V1.95C9.66667 1.43283 9.45595 0.936838 9.08088 0.571142C8.70581 0.205446 8.1971 0 7.66667 0H6.33333C5.8029 0 5.29419 0.205446 4.91912 0.571142C4.54405 0.936838 4.33333 1.43283 4.33333 1.95V2.6H1.66667C1.48986 2.6 1.32029 2.66848 1.19526 2.79038C1.07024 2.91228 1 3.07761 1 3.25C1 3.42239 1.07024 3.58772 1.19526 3.70962C1.32029 3.83152 1.48986 3.9 1.66667 3.9H2.33333V11.05C2.33333 11.5672 2.54405 12.0632 2.91912 12.4289C3.29419 12.7946 3.8029 13 4.33333 13H9.66667C10.1971 13 10.7058 12.7946 11.0809 12.4289C11.456 12.0632 11.6667 11.5672 11.6667 11.05V3.9H12.3333C12.5101 3.9 12.6797 3.83152 12.8047 3.70962C12.9298 3.58772 13 3.42239 13 3.25C13 3.07761 12.9298 2.91228 12.8047 2.79038C12.6797 2.66848 12.5101 2.6 12.3333 2.6ZM5.66667 1.95C5.66667 1.77761 5.7369 1.61228 5.86193 1.49038C5.98695 1.36848 6.15652 1.3 6.33333 1.3H7.66667C7.84348 1.3 8.01305 1.36848 8.13807 1.49038C8.2631 1.61228 8.33333 1.77761 8.33333 1.95V2.6H5.66667V1.95ZM10.3333 11.05C10.3333 11.2224 10.2631 11.3877 10.1381 11.5096C10.013 11.6315 9.84348 11.7 9.66667 11.7H4.33333C4.15652 11.7 3.98695 11.6315 3.86193 11.5096C3.7369 11.3877 3.66667 11.2224 3.66667 11.05V3.9H10.3333V11.05ZM8.33333 10.4C8.51014 10.4 8.67971 10.3315 8.80474 10.2096C8.92976 10.0877 9 9.92239 9 9.75V5.85C9 5.67761 8.92976 5.51228 8.80474 5.39038C8.67971 5.26848 8.51014 5.2 8.33333 5.2C8.15652 5.2 7.98695 5.26848 7.86193 5.39038C7.73691 5.51228 7.66667 5.67761 7.66667 5.85V9.75C7.66667 9.92239 7.73691 10.0877 7.86193 10.2096C7.98695 10.3315 8.15652 10.4 8.33333 10.4Z" fill="currentColor"/>
</g>
<defs>
<clipPath id="clip0_3070_130583">
<rect width="14" height="14" fill="white"/>
</clipPath>
</defs>
</svg>
